<svg width="32" height="32" viewBox="0 0 32 32" fill="none" xmlns="http://www.w3.org/2000/svg">
<g clip-path="url(#clip0_1138_1105)">
<path d="M4.45044 22.6665C6.75584 26.6518 11.0648 29.3332 16 29.3332C20.9352 29.3332 25.2442 26.6518 27.5496 22.6665" stroke="#004ABA" stroke-width="1.5" stroke-linecap="round" stroke-linejoin="round"/>
<path d="M4.45044 9.33317C6.75584 5.34783 11.0648 2.6665 16 2.6665C20.9352 2.6665 25.2442 5.34783 27.5496 9.33317" stroke="#004ABA" stroke-width="1.5" stroke-linecap="round" stroke-linejoin="round"/>
<path d="M17.3333 29.2674C17.3333 29.2674 19.2104 26.7955 20.3928 22.6665" stroke="#004ABA" stroke-width="1.5" stroke-linecap="round" stroke-linejoin="round"/>
<path d="M17.3333 2.73242C17.3333 2.73242 19.2104 5.20438 20.3928 9.33333" stroke="#004ABA" stroke-width="1.5" stroke-linecap="round" stroke-linejoin="round"/>
<path d="M14.6667 29.2674C14.6667 29.2674 12.7896 26.7955 11.6072 22.6665" stroke="#004ABA" stroke-width="1.5" stroke-linecap="round" stroke-linejoin="round"/>
<path d="M14.6663 2.73242C14.6663 2.73242 12.7891 5.20438 11.6067 9.33333" stroke="#004ABA" stroke-width="1.5" stroke-linecap="round" stroke-linejoin="round"/>
<path d="M12 13.3335L14 20.0002L16 13.3335L18 20.0002L20 13.3335" stroke="#004ABA" stroke-width="1.5" stroke-linecap="round" stroke-linejoin="round"/>
<path d="M1.33325 13.3335L3.33325 20.0002L5.33325 13.3335L7.33325 20.0002L9.33325 13.3335" stroke="#004ABA" stroke-width="1.5" stroke-linecap="round" stroke-linejoin="round"/>
<path d="M22.6667 13.3335L24.6667 20.0002L26.6667 13.3335L28.6667 20.0002L30.6667 13.3335" stroke="#004ABA" stroke-width="1.5" stroke-linecap="round" stroke-linejoin="round"/>
</g>
<defs>
<clipPath id="clip0_1138_1105">
<rect width="32" height="32" fill="white"/>
</clipPath>
</defs>
</svg>
