<svg width="32" height="32" viewBox="0 0 32 32" fill="none" xmlns="http://www.w3.org/2000/svg">
<path d="M17.3332 28H4.6665C3.56193 28 2.6665 27.1046 2.6665 26V6C2.6665 4.89543 3.56193 4 4.6665 4H27.3332C28.4377 4 29.3332 4.89543 29.3332 6V16" stroke="#004ABA" stroke-width="1.5" stroke-linecap="round"/>
<path d="M2.6665 9.33331L29.3332 9.33331" stroke="#004ABA" stroke-width="1.5" stroke-linecap="round" stroke-linejoin="round"/>
<path d="M6.6665 6.68002L6.67984 6.66521" stroke="#004ABA" stroke-width="1.5" stroke-linecap="round" stroke-linejoin="round"/>
<path d="M10.6665 6.68002L10.6798 6.66521" stroke="#004ABA" stroke-width="1.5" stroke-linecap="round" stroke-linejoin="round"/>
<path d="M14.6665 6.68002L14.6798 6.66521" stroke="#004ABA" stroke-width="1.5" stroke-linecap="round" stroke-linejoin="round"/>
<path d="M25.159 18.7917L28.881 19.737C29.1471 19.8046 29.3342 20.0488 29.3281 20.3232C29.1541 28.1389 24.6667 29.3334 24.6667 29.3334C24.6667 29.3334 20.1792 28.1389 20.0052 20.3232C19.9991 20.0488 20.1863 19.8046 20.4523 19.737L24.1744 18.7917C24.4974 18.7097 24.8359 18.7097 25.159 18.7917Z" stroke="#004ABA" stroke-width="1.5" stroke-linecap="round" stroke-linejoin="round"/>
</svg>
