<svg width="32" height="32" viewBox="0 0 32 32" fill="none" xmlns="http://www.w3.org/2000/svg">
<path d="M18.6667 15.9998H19.4C19.7314 15.9998 20 16.2685 20 16.5998V20.7332C20 21.0645 19.7314 21.3332 19.4 21.3332H12.6C12.2686 21.3332 12 21.0645 12 20.7332V16.5998C12 16.2685 12.2686 15.9998 12.6 15.9998H13.3333M18.6667 15.9998V13.3332C18.6667 12.4443 18.1333 10.6665 16 10.6665C13.8667 10.6665 13.3333 12.4443 13.3333 13.3332V15.9998M18.6667 15.9998H13.3333" stroke="#004ABA" stroke-width="1.5" stroke-linecap="round" stroke-linejoin="round"/>
<path d="M2.66675 10.6665L15.7318 4.134C15.9007 4.04954 16.0995 4.04954 16.2684 4.134L29.3334 10.6665" stroke="#004ABA" stroke-width="1.5" stroke-linecap="round" stroke-linejoin="round"/>
<path d="M26.6666 14.6665V25.9998C26.6666 27.1044 25.7712 27.9998 24.6666 27.9998H7.33325C6.22868 27.9998 5.33325 27.1044 5.33325 25.9998V14.6665" stroke="#004ABA" stroke-width="1.5" stroke-linecap="round" stroke-linejoin="round"/>
</svg>
